<?xml version="1.0" encoding="UTF-8"?>
<!DOCTYPE svg PUBLIC "-//W3C//DTD SVG 1.1//EN" "http://www.w3.org/Graphics/SVG/1.1/DTD/svg11.dtd">
<svg xmlns="http://www.w3.org/2000/svg" version="1.1" width="500px" height="500px" style="shape-rendering:geometricPrecision; text-rendering:geometricPrecision; image-rendering:optimizeQuality; fill-rule:evenodd; clip-rule:evenodd" xmlns:xlink="http://www.w3.org/1999/xlink">
<g><path style="opacity:1" fill="#191a48" d="M 185.5,163.5 C 185.5,161.833 185.5,160.167 185.5,158.5C 187.305,157.763 188.971,156.763 190.5,155.5C 192.664,155.998 194.331,157.164 195.5,159C 196.793,159.49 198.127,159.657 199.5,159.5C 197.741,161.633 197.074,163.966 197.5,166.5C 194.894,167.652 192.227,167.818 189.5,167C 188.468,165.373 187.134,164.207 185.5,163.5 Z"/></g>
<g><path style="opacity:1" fill="#2c2d4e" d="M 269.5,156.5 C 273.245,165.943 269.912,170.11 259.5,169C 255.329,165.146 254.496,160.646 257,155.5C 261.576,152.522 265.743,152.855 269.5,156.5 Z"/></g>
<g><path style="opacity:1" fill="#1b1a49" d="M 269.5,156.5 C 269.5,159.5 269.5,162.5 269.5,165.5C 267.8,165.626 266.3,166.293 265,167.5C 263.56,166.852 262.06,166.519 260.5,166.5C 260.249,163.091 260.583,159.758 261.5,156.5C 264.445,155.674 267.112,155.674 269.5,156.5 Z"/></g>
<g><path style="opacity:0.743" fill="#f1d8af" d="M 146.5,173.5 C 141.972,171.435 137.306,169.769 132.5,168.5C 129.483,168.768 126.483,169.102 123.5,169.5C 130.107,166.766 136.774,166.932 143.5,170C 144.71,171.039 145.71,172.206 146.5,173.5 Z"/></g>
<g><path style="opacity:1" fill="#373854" d="M 185.5,163.5 C 187.134,164.207 188.468,165.373 189.5,167C 192.227,167.818 194.894,167.652 197.5,166.5C 197.074,163.966 197.741,161.633 199.5,159.5C 198.127,159.657 196.793,159.49 195.5,159C 194.331,157.164 192.664,155.998 190.5,155.5C 188.971,156.763 187.305,157.763 185.5,158.5C 185.916,156.248 187.249,154.748 189.5,154C 199.196,152.876 202.696,157.043 200,166.5C 196.288,170.944 192.121,171.444 187.5,168C 186.418,166.67 185.751,165.17 185.5,163.5 Z"/></g>
<g><path style="opacity:0.882" fill="#42455d" d="M 201.5,183.5 C 201.491,181.692 201.991,180.025 203,178.5C 207.311,175.687 211.144,172.354 214.5,168.5C 214.291,167.914 213.957,167.414 213.5,167C 216.199,165.423 216.866,163.257 215.5,160.5C 212.317,160.777 210.317,162.444 209.5,165.5C 208.311,166.429 206.978,166.762 205.5,166.5C 207.887,163.111 210.887,160.445 214.5,158.5C 219.493,159.977 220.66,162.977 218,167.5C 212.631,173.036 207.131,178.37 201.5,183.5 Z"/></g>
<g><path style="opacity:1" fill="#302e4c" d="M 261.5,178.5 C 260.883,178.611 260.383,178.944 260,179.5C 258.758,177.459 256.925,176.293 254.5,176C 253.167,174.333 251.833,172.667 250.5,171C 248.101,170.269 245.935,169.102 244,167.5C 243.883,163.215 241.717,161.215 237.5,161.5C 237.448,163.903 237.781,166.236 238.5,168.5C 237.25,168.423 236.417,167.756 236,166.5C 234.175,161.014 236.008,158.514 241.5,159C 248.035,165.703 254.702,172.203 261.5,178.5 Z"/></g>
<g><path style="opacity:1" fill="#202153" d="M 201.5,183.5 C 197.358,190.447 194.024,190.114 191.5,182.5C 195.815,176.852 200.481,171.519 205.5,166.5C 206.978,166.762 208.311,166.429 209.5,165.5C 210.317,162.444 212.317,160.777 215.5,160.5C 216.866,163.257 216.199,165.423 213.5,167C 213.957,167.414 214.291,167.914 214.5,168.5C 211.144,172.354 207.311,175.687 203,178.5C 201.991,180.025 201.491,181.692 201.5,183.5 Z"/></g>
<g><path style="opacity:1" fill="#232254" d="M 261.5,178.5 C 263.917,181.011 264.084,183.677 262,186.5C 260.867,188.211 259.367,188.711 257.5,188C 252,182.833 246.5,177.667 241,172.5C 240.338,171.016 239.504,169.683 238.5,168.5C 237.781,166.236 237.448,163.903 237.5,161.5C 241.717,161.215 243.883,163.215 244,167.5C 245.935,169.102 248.101,170.269 250.5,171C 251.833,172.667 253.167,174.333 254.5,176C 256.925,176.293 258.758,177.459 260,179.5C 260.383,178.944 260.883,178.611 261.5,178.5 Z"/></g>
<g><path style="opacity:1" fill="#f3ca8b" d="M 307.5,176.5 C 309.394,172.116 312.727,169.282 317.5,168C 331.217,166.384 339.217,172.384 341.5,186C 337.964,203.435 327.964,208.768 311.5,202C 303.884,194.366 302.551,185.866 307.5,176.5 Z M 328.5,182.5 C 329.833,185.167 329.833,187.833 328.5,190.5C 322.308,195.409 317.975,194.075 315.5,186.5C 317.975,178.925 322.308,177.591 328.5,182.5 Z"/></g>
<g><path style="opacity:1" fill="#f7c581" d="M 146.5,173.5 C 153.886,182.082 153.886,190.916 146.5,200C 137.574,206.932 128.574,206.932 119.5,200C 114.357,192.824 113.19,184.991 116,176.5C 117.736,173.261 120.236,170.927 123.5,169.5C 126.483,169.102 129.483,168.768 132.5,168.5C 137.306,169.769 141.972,171.435 146.5,173.5 Z M 129.5,193.5 C 124.248,188.994 124.248,184.494 129.5,180C 136.618,179.118 139.784,182.284 139,189.5C 136.761,192.962 133.594,194.295 129.5,193.5 Z"/></g>
<g><path style="opacity:1" fill="#f2d09a" d="M 129.5,193.5 C 127.61,193.703 126.11,193.037 125,191.5C 124.304,187.095 124.637,182.761 126,178.5C 130.118,177.202 134.285,177.202 138.5,178.5C 140.49,183.398 140.823,188.398 139.5,193.5C 136.033,194.788 132.7,194.788 129.5,193.5 Z M 129.5,193.5 C 133.594,194.295 136.761,192.962 139,189.5C 139.784,182.284 136.618,179.118 129.5,180C 124.248,184.494 124.248,188.994 129.5,193.5 Z"/></g>
<g><path style="opacity:1" fill="#f7c57e" d="M 328.5,182.5 C 322.308,177.591 317.975,178.925 315.5,186.5C 317.975,194.075 322.308,195.409 328.5,190.5C 329.712,189.77 330.712,188.77 331.5,187.5C 332.429,188.689 332.762,190.022 332.5,191.5C 334.39,191.703 335.89,191.037 337,189.5C 337.862,194.247 336.362,198.08 332.5,201C 328.695,201.961 324.862,202.794 321,203.5C 318.679,203.091 316.513,202.257 314.5,201C 315.308,200.692 315.975,200.192 316.5,199.5C 313.948,197.142 311.448,194.809 309,192.5C 308.683,194.301 308.016,194.634 307,193.5C 306.176,190.118 306.343,186.784 307.5,183.5C 308.185,185.781 308.351,188.114 308,190.5C 308.923,188.966 309.423,187.299 309.5,185.5C 308.077,182.725 307.411,179.725 307.5,176.5C 309.352,175.911 311.185,175.244 313,174.5C 313.333,175.167 313.667,175.833 314,176.5C 314.318,174.939 315.151,173.772 316.5,173C 326.189,172.223 326.522,171.223 317.5,170C 321.9,169.022 326.067,169.522 330,171.5C 330.3,174.572 331.466,177.239 333.5,179.5C 332.579,181.756 330.912,182.756 328.5,182.5 Z"/></g>
<g><path style="opacity:1" fill="#130e4f" d="M 207.5,194.5 C 229.33,195.332 251.33,195.832 273.5,196C 274.5,196.5 275.5,197 276.5,197.5C 277.833,198.5 277.833,199.5 276.5,200.5C 274.273,201.053 271.939,201.053 269.5,200.5C 240.336,199.336 211.003,199.17 181.5,200C 180.944,200.383 180.611,200.883 180.5,201.5C 180.167,201.5 179.833,201.5 179.5,201.5C 178.448,201.649 177.448,201.483 176.5,201C 179.018,198.572 182.018,196.905 185.5,196C 192.841,195.522 200.174,195.022 207.5,194.5 Z"/></g>
<g><path style="opacity:1" fill="#262544" d="M 183.5,193.5 C 177.27,195.948 171.27,198.948 165.5,202.5C 170.11,196.862 176.11,193.862 183.5,193.5 Z"/></g>
<g><path style="opacity:1" fill="#0e0f3b" d="M 269.5,200.5 C 255.5,200.5 241.5,200.5 227.5,200.5C 211.786,200.197 196.119,200.531 180.5,201.5C 180.611,200.883 180.944,200.383 181.5,200C 211.003,199.17 240.336,199.336 269.5,200.5 Z"/></g>
<g><path style="opacity:1" fill="#13d9c0" d="M 227.5,201.5 C 227.5,201.167 227.5,200.833 227.5,200.5C 241.5,200.5 255.5,200.5 269.5,200.5C 272.254,201.641 274.921,202.975 277.5,204.5C 275.801,204.38 274.135,204.046 272.5,203.5C 265.187,204.816 257.854,205.983 250.5,207C 251.5,207.333 252.5,207.667 253.5,208C 252.833,208.167 252.167,208.333 251.5,208.5C 244.622,208.211 237.789,207.877 231,207.5C 229.833,209.167 228.667,210.833 227.5,212.5C 226.735,211.388 225.735,210.721 224.5,210.5C 225.37,207.622 226.703,204.955 228.5,202.5C 228.376,201.893 228.043,201.56 227.5,201.5 Z"/></g>
<g><path style="opacity:1" fill="#09e1c0" d="M 277.5,204.5 C 280.366,206.546 282.533,209.213 284,212.5C 284.667,230.5 284.667,248.5 284,266.5C 283.814,269.036 283.314,271.369 282.5,273.5C 283.449,254.508 283.616,235.508 283,216.5C 282.057,213.6 280.39,211.267 278,209.5C 277.015,211.366 276.515,213.366 276.5,215.5C 277.719,218.742 278.386,221.909 278.5,225C 277.232,227.141 276.565,229.474 276.5,232C 277.052,237.915 278.052,243.748 279.5,249.5C 278.963,250.741 278.296,251.908 277.5,253C 277.484,255.242 277.817,257.576 278.5,260C 277.359,263.757 276.026,267.424 274.5,271C 275.619,273.562 275.619,276.062 274.5,278.5C 273.5,278.5 272.5,278.5 271.5,278.5C 271.739,281.915 271.072,285.081 269.5,288C 270.481,292.93 272.314,293.43 275,289.5C 275.651,287.765 275.485,286.098 274.5,284.5C 275.325,283.614 276.325,283.281 277.5,283.5C 277.343,282.127 277.51,280.793 278,279.5C 278.671,280.252 279.504,280.586 280.5,280.5C 279.489,284.856 277.656,288.856 275,292.5C 269.662,298.67 264.162,304.67 258.5,310.5C 255.833,312.167 253.167,313.833 250.5,315.5C 248.012,315.317 246.012,314.317 244.5,312.5C 247.127,308.731 250.794,306.897 255.5,307C 253.942,306.79 252.609,306.29 251.5,305.5C 257.702,305.469 260.535,302.469 260,296.5C 251.218,278.15 243.218,259.484 236,240.5C 231.11,235.712 225.943,235.379 220.5,239.5C 217.622,243.267 215.288,247.267 213.5,251.5C 213.708,249.08 213.374,246.747 212.5,244.5C 214.013,243.154 215.347,241.654 216.5,240C 215.711,238.374 214.711,236.874 213.5,235.5C 215.51,234.651 217.177,235.318 218.5,237.5C 219.59,236.273 220.924,235.44 222.5,235C 222.854,233.374 222.854,231.541 222.5,229.5C 225.167,229.167 227.833,228.833 230.5,228.5C 230.5,227.5 230.5,226.5 230.5,225.5C 229.022,225.762 227.689,225.429 226.5,224.5C 227.42,222.214 227.42,219.881 226.5,217.5C 224.54,218.138 222.707,218.138 221,217.5C 220.502,220.482 220.335,223.482 220.5,226.5C 217.763,226.599 215.096,226.265 212.5,225.5C 217.232,221.008 221.232,216.008 224.5,210.5C 225.735,210.721 226.735,211.388 227.5,212.5C 228.667,210.833 229.833,209.167 231,207.5C 237.789,207.877 244.622,208.211 251.5,208.5C 252.167,208.333 252.833,208.167 253.5,208C 252.5,207.667 251.5,207.333 250.5,207C 257.854,205.983 265.187,204.816 272.5,203.5C 274.135,204.046 275.801,204.38 277.5,204.5 Z"/></g>
<g><path style="opacity:1" fill="#302955" d="M 273.5,193.5 C 251.673,194.497 229.673,194.831 207.5,194.5C 200.174,195.022 192.841,195.522 185.5,196C 182.018,196.905 179.018,198.572 176.5,201C 177.448,201.483 178.448,201.649 179.5,201.5C 175.149,204.689 171.649,208.689 169,213.5C 168.5,224.161 168.333,234.828 168.5,245.5C 165.546,247.28 162.713,249.28 160,251.5C 159.5,239.838 159.333,228.171 159.5,216.5C 159.879,211.082 161.879,206.415 165.5,202.5C 171.27,198.948 177.27,195.948 183.5,193.5C 213.36,192.186 243.36,192.186 273.5,193.5 Z"/></g>
<g><path style="opacity:1" fill="#1a1b48" d="M 112.5,233.5 C 110.596,233.262 109.262,232.262 108.5,230.5C 106.069,224.795 107.236,220.128 112,216.5C 112.427,219.493 113.594,219.993 115.5,218C 112.924,216.617 113.258,215.783 116.5,215.5C 117.5,215.833 118.5,216.167 119.5,216.5C 119.291,217.086 118.957,217.586 118.5,218C 120.167,218.333 121.833,218.667 123.5,219C 124.617,222.073 124.784,225.24 124,228.5C 123.086,227.346 122.253,227.513 121.5,229C 122.731,230.183 122.731,231.349 121.5,232.5C 118.579,233.407 115.579,233.74 112.5,233.5 Z"/></g>
<g><path style="opacity:1" fill="#f4f6f7" d="M 227.5,201.5 C 228.043,201.56 228.376,201.893 228.5,202.5C 226.703,204.955 225.37,207.622 224.5,210.5C 221.232,216.008 217.232,221.008 212.5,225.5C 201.726,234.392 190.392,242.559 178.5,250C 174.553,253.776 170.886,257.609 167.5,261.5C 166.5,261.833 165.833,262.5 165.5,263.5C 162.952,267.263 160.952,271.263 159.5,275.5C 158.583,255.667 158.583,236.001 159.5,216.5C 159.333,228.171 159.5,239.838 160,251.5C 162.713,249.28 165.546,247.28 168.5,245.5C 178.262,239.588 187.929,233.421 197.5,227C 201.367,222.798 205.533,218.965 210,215.5C 213,211.833 216,208.167 219,204.5C 219.483,203.552 219.649,202.552 219.5,201.5C 222.167,201.5 224.833,201.5 227.5,201.5 Z"/></g>
<g><path style="opacity:1" fill="#f17e85" d="M 227.5,200.5 C 227.5,200.833 227.5,201.167 227.5,201.5C 224.833,201.5 222.167,201.5 219.5,201.5C 219.649,202.552 219.483,203.552 219,204.5C 216,208.167 213,211.833 210,215.5C 205.533,218.965 201.367,222.798 197.5,227C 187.929,233.421 178.262,239.588 168.5,245.5C 168.333,234.828 168.5,224.161 169,213.5C 171.649,208.689 175.149,204.689 179.5,201.5C 179.833,201.5 180.167,201.5 180.5,201.5C 196.119,200.531 211.786,200.197 227.5,200.5 Z"/></g>
<g><path style="opacity:1" fill="#29234b" d="M 316.5,233.5 C 315.85,233.804 315.183,234.137 314.5,234.5C 313.155,231.256 310.988,230.256 308,231.5C 306.667,228.833 304.667,226.833 302,225.5C 302.572,227.201 303.072,229.534 303.5,232.5C 299.557,230.279 298.057,226.946 299,222.5C 301.545,221.203 304.045,221.369 306.5,223C 310.037,226.369 313.371,229.869 316.5,233.5 Z"/></g>
<g><path style="opacity:1" fill="#03e6ba" d="M 282.5,273.5 C 282.59,276.152 281.924,278.485 280.5,280.5C 279.504,280.586 278.671,280.252 278,279.5C 277.51,280.793 277.343,282.127 277.5,283.5C 276.325,283.281 275.325,283.614 274.5,284.5C 275.485,286.098 275.651,287.765 275,289.5C 272.314,293.43 270.481,292.93 269.5,288C 271.072,285.081 271.739,281.915 271.5,278.5C 272.5,278.5 273.5,278.5 274.5,278.5C 275.619,276.062 275.619,273.562 274.5,271C 276.026,267.424 277.359,263.757 278.5,260C 277.817,257.576 277.484,255.242 277.5,253C 278.296,251.908 278.963,250.741 279.5,249.5C 278.052,243.748 277.052,237.915 276.5,232C 276.565,229.474 277.232,227.141 278.5,225C 278.386,221.909 277.719,218.742 276.5,215.5C 276.515,213.366 277.015,211.366 278,209.5C 280.39,211.267 282.057,213.6 283,216.5C 283.616,235.508 283.449,254.508 282.5,273.5 Z"/></g>
<g><path style="opacity:1" fill="#2f304d" d="M 112.5,233.5 C 115.579,233.74 118.579,233.407 121.5,232.5C 122.731,231.349 122.731,230.183 121.5,229C 122.253,227.513 123.086,227.346 124,228.5C 124.784,225.24 124.617,222.073 123.5,219C 121.833,218.667 120.167,218.333 118.5,218C 118.957,217.586 119.291,217.086 119.5,216.5C 118.5,216.167 117.5,215.833 116.5,215.5C 113.258,215.783 112.924,216.617 115.5,218C 113.594,219.993 112.427,219.493 112,216.5C 107.236,220.128 106.069,224.795 108.5,230.5C 103.891,224.043 104.891,218.543 111.5,214C 124.197,212.693 129.03,218.193 126,230.5C 121.91,234.824 117.41,235.824 112.5,233.5 Z"/></g>
<g><path style="opacity:1" fill="#06e3bf" d="M 213.5,251.5 C 207.175,267.47 200.842,283.47 194.5,299.5C 198.267,305.827 202.767,306.161 208,300.5C 210.275,294.955 212.775,289.622 215.5,284.5C 223.684,284.826 231.684,284.492 239.5,283.5C 241.733,289.017 243.9,294.684 246,300.5C 247.704,302.373 249.537,304.04 251.5,305.5C 252.609,306.29 253.942,306.79 255.5,307C 250.794,306.897 247.127,308.731 244.5,312.5C 237.668,313.916 231.668,316.916 226.5,321.5C 208.345,328.668 193.012,339.668 180.5,354.5C 178.042,354.822 175.875,355.822 174,357.5C 171.85,356.483 170.017,355.15 168.5,353.5C 168.831,322.995 168.498,292.662 167.5,262.5C 167.5,262.167 167.5,261.833 167.5,261.5C 170.886,257.609 174.553,253.776 178.5,250C 190.392,242.559 201.726,234.392 212.5,225.5C 215.096,226.265 217.763,226.599 220.5,226.5C 220.335,223.482 220.502,220.482 221,217.5C 222.707,218.138 224.54,218.138 226.5,217.5C 227.42,219.881 227.42,222.214 226.5,224.5C 227.689,225.429 229.022,225.762 230.5,225.5C 230.5,226.5 230.5,227.5 230.5,228.5C 227.833,228.833 225.167,229.167 222.5,229.5C 222.854,231.541 222.854,233.374 222.5,235C 220.924,235.44 219.59,236.273 218.5,237.5C 217.177,235.318 215.51,234.651 213.5,235.5C 214.711,236.874 215.711,238.374 216.5,240C 215.347,241.654 214.013,243.154 212.5,244.5C 213.374,246.747 213.708,249.08 213.5,251.5 Z"/></g>
<g><path style="opacity:1" fill="#fafdfc" d="M 251.5,305.5 C 249.537,304.04 247.704,302.373 246,300.5C 243.9,294.684 241.733,289.017 239.5,283.5C 239.293,280.759 238.293,278.426 236.5,276.5C 234.024,268.242 230.858,260.242 227,252.5C 223.815,258.885 221.315,265.552 219.5,272.5C 219.5,273.167 219.5,273.833 219.5,274.5C 217.99,277.683 216.657,281.016 215.5,284.5C 212.775,289.622 210.275,294.955 208,300.5C 202.767,306.161 198.267,305.827 194.5,299.5C 200.842,283.47 207.175,267.47 213.5,251.5C 215.288,247.267 217.622,243.267 220.5,239.5C 225.943,235.379 231.11,235.712 236,240.5C 243.218,259.484 251.218,278.15 260,296.5C 260.535,302.469 257.702,305.469 251.5,305.5 Z"/></g>
<g><path style="opacity:1" fill="#282253" d="M 316.5,233.5 C 322.829,238.996 328.663,244.996 334,251.5C 335.591,258.077 333.091,260.244 326.5,258C 318.547,249.558 310.88,241.058 303.5,232.5C 303.072,229.534 302.572,227.201 302,225.5C 304.667,226.833 306.667,228.833 308,231.5C 310.988,230.256 313.155,231.256 314.5,234.5C 315.183,234.137 315.85,233.804 316.5,233.5 Z"/></g>
<g><path style="opacity:1" fill="#21244d" d="M 146.5,226.5 C 153.476,218.882 156.309,220.215 155,230.5C 146.5,239.667 138,248.833 129.5,258C 121.237,258.307 119.737,255.14 125,248.5C 132.397,241.271 139.563,233.938 146.5,226.5 Z"/></g>
<g><path style="opacity:1" fill="#14194d" d="M 146.5,226.5 C 147.833,226.5 149.167,226.5 150.5,226.5C 150.5,225.5 150.5,224.5 150.5,223.5C 151.833,223.5 153.167,223.5 154.5,223.5C 154.5,224.5 154.5,225.5 154.5,226.5C 153.448,226.351 152.448,226.517 151.5,227C 152.973,227.71 153.64,228.876 153.5,230.5C 152.167,230.5 150.833,230.5 149.5,230.5C 147.753,233.178 146.087,236.012 144.5,239C 142.633,239.711 141.133,239.211 140,237.5C 141.065,234.394 143.065,231.727 146,229.5C 146.483,228.552 146.649,227.552 146.5,226.5 Z"/></g>
<g><path style="opacity:1" fill="#161951" d="M 273.5,193.5 C 283.754,195.422 290.088,201.422 292.5,211.5C 292.5,248.833 292.5,286.167 292.5,323.5C 291.778,323.918 291.278,324.584 291,325.5C 290.667,325.167 290.333,324.833 290,324.5C 287.904,313.194 286.738,301.861 286.5,290.5C 285.831,292.631 285.165,294.631 284.5,296.5C 284.657,295.127 284.49,293.793 284,292.5C 282.643,295.898 280.81,298.898 278.5,301.5C 278.662,299.473 278.495,297.473 278,295.5C 276.333,297.833 274.667,300.167 273,302.5C 272.439,301.978 271.772,301.645 271,301.5C 269.274,303.724 267.108,305.391 264.5,306.5C 263.194,307.912 262.36,309.579 262,311.5C 260.989,310.663 259.822,310.33 258.5,310.5C 264.162,304.67 269.662,298.67 275,292.5C 277.656,288.856 279.489,284.856 280.5,280.5C 281.924,278.485 282.59,276.152 282.5,273.5C 283.314,271.369 283.814,269.036 284,266.5C 284.667,248.5 284.667,230.5 284,212.5C 282.533,209.213 280.366,206.546 277.5,204.5C 274.921,202.975 272.254,201.641 269.5,200.5C 271.939,201.053 274.273,201.053 276.5,200.5C 277.833,199.5 277.833,198.5 276.5,197.5C 275.5,197 274.5,196.5 273.5,196C 251.33,195.832 229.33,195.332 207.5,194.5C 229.673,194.831 251.673,194.497 273.5,193.5 Z"/></g>
<g><path style="opacity:1" fill="#19194d" d="M 236.5,276.5 C 235.416,274.681 234.082,273.015 232.5,271.5C 231.719,272.729 231.219,274.062 231,275.5C 230.667,272.833 230.333,270.167 230,267.5C 228.542,269.96 226.709,272.127 224.5,274C 224.957,274.414 225.291,274.914 225.5,275.5C 224.24,276.382 223.074,277.382 222,278.5C 221.998,275.949 221.164,273.949 219.5,272.5C 221.315,265.552 223.815,258.885 227,252.5C 230.858,260.242 234.024,268.242 236.5,276.5 Z"/></g>
<g><path style="opacity:1" fill="#1a1c49" d="M 341.5,260.5 C 343.288,260.215 344.955,260.548 346.5,261.5C 346.023,262.478 345.357,263.311 344.5,264C 345,264.167 345.5,264.333 346,264.5C 347.921,262.997 350.088,262.331 352.5,262.5C 352.398,266.027 353.398,269.194 355.5,272C 353.398,278.637 349.064,281.137 342.5,279.5C 343.09,278.201 344.09,277.368 345.5,277C 343.015,275.371 340.849,275.871 339,278.5C 335.951,273.008 335.784,267.341 338.5,261.5C 339.391,260.89 340.391,260.557 341.5,260.5 Z"/></g>
<g><path style="opacity:1" fill="#131455" d="M 236.5,276.5 C 236.317,278.936 236.984,281.103 238.5,283C 232.509,283.499 226.509,283.666 220.5,283.5C 219.841,280.545 219.508,277.545 219.5,274.5C 219.5,273.833 219.5,273.167 219.5,272.5C 221.164,273.949 221.998,275.949 222,278.5C 223.074,277.382 224.24,276.382 225.5,275.5C 225.291,274.914 224.957,274.414 224.5,274C 226.709,272.127 228.542,269.96 230,267.5C 230.333,270.167 230.667,272.833 231,275.5C 231.219,274.062 231.719,272.729 232.5,271.5C 234.082,273.015 235.416,274.681 236.5,276.5 Z"/></g>
<g><path style="opacity:1" fill="#2f304e" d="M 338.5,261.5 C 335.784,267.341 335.951,273.008 339,278.5C 340.849,275.871 343.015,275.371 345.5,277C 344.09,277.368 343.09,278.201 342.5,279.5C 349.064,281.137 353.398,278.637 355.5,272C 353.398,269.194 352.398,266.027 352.5,262.5C 350.088,262.331 347.921,262.997 346,264.5C 345.5,264.333 345,264.167 344.5,264C 345.357,263.311 346.023,262.478 346.5,261.5C 344.955,260.548 343.288,260.215 341.5,260.5C 347.932,257.731 352.765,259.731 356,266.5C 358.355,275.757 354.689,281.09 345,282.5C 336.616,280.41 333.283,275.077 335,266.5C 335.697,264.416 336.864,262.749 338.5,261.5 Z"/></g>
<g><path style="opacity:1" fill="#2a2a4b" d="M 102.5,279.5 C 99.192,274.888 98.692,269.888 101,264.5C 106.157,258.927 111.99,258.094 118.5,262C 124.103,268.323 123.769,274.323 117.5,280C 112.297,283.346 107.297,283.179 102.5,279.5 Z"/></g>
<g><path style="opacity:1" fill="#191a48" d="M 102.5,279.5 C 102.38,277.801 102.046,276.135 101.5,274.5C 102.617,271.93 103.45,269.263 104,266.5C 104.464,272.175 105.131,272.508 106,267.5C 106.833,266.667 107.667,265.833 108.5,265C 107.643,264.311 106.977,263.478 106.5,262.5C 110.405,261.8 114.072,261.8 117.5,262.5C 117.579,263.93 117.246,265.264 116.5,266.5C 117.5,267.167 118.5,267.833 119.5,268.5C 117.629,271.803 116.796,275.136 117,278.5C 112.345,280.707 107.512,281.041 102.5,279.5 Z"/></g>
<g><path style="opacity:1" fill="#10204a" d="M 219.5,274.5 C 219.508,277.545 219.841,280.545 220.5,283.5C 226.509,283.666 232.509,283.499 238.5,283C 236.984,281.103 236.317,278.936 236.5,276.5C 238.293,278.426 239.293,280.759 239.5,283.5C 231.684,284.492 223.684,284.826 215.5,284.5C 216.657,281.016 217.99,277.683 219.5,274.5 Z"/></g>
<g><path style="opacity:1" fill="#052943" d="M 167.5,261.5 C 167.5,261.833 167.5,262.167 167.5,262.5C 167.5,297.5 167.5,332.5 167.5,367.5C 166.833,332.833 166.167,298.167 165.5,263.5C 165.833,262.5 166.5,261.833 167.5,261.5 Z"/></g>
<g><path style="opacity:1" fill="#242047" d="M 148.5,322.5 C 150.117,323.038 151.784,323.371 153.5,323.5C 153.66,321.801 153.494,320.134 153,318.5C 148.607,317.605 146.773,314.938 147.5,310.5C 146.127,310.657 144.793,310.49 143.5,310C 139.489,305.464 134.823,300.798 129.5,296C 128.551,295.383 127.718,295.549 127,296.5C 124.171,290.841 123.004,291.175 123.5,297.5C 120.43,293.591 120.93,290.257 125,287.5C 126.067,288.191 127.234,288.691 128.5,289C 137.209,298.221 146.043,307.387 155,316.5C 155.769,319.099 155.602,321.599 154.5,324C 152.011,324.941 150.011,324.441 148.5,322.5 Z"/></g>
<g><path style="opacity:1" fill="#2a2d4b" d="M 326.5,300.5 C 326.321,298.046 326.987,295.879 328.5,294C 328.167,293.5 327.833,293 327.5,292.5C 324.574,293.453 321.907,294.787 319.5,296.5C 321.787,290.824 325.787,288.158 331.5,288.5C 333.124,289.869 333.624,291.536 333,293.5C 331.334,296.331 329.168,298.664 326.5,300.5 Z"/></g>
<g><path style="opacity:1" fill="#383657" d="M 292.5,211.5 C 294.053,232.142 294.72,252.976 294.5,274C 294.502,297.179 294.002,320.346 293,343.5C 291.893,348.766 289.06,352.766 284.5,355.5C 284.871,349.86 282.537,348.193 277.5,350.5C 277.5,350.167 277.5,349.833 277.5,349.5C 283.565,347.037 285.565,342.704 283.5,336.5C 285.234,338.322 286.234,340.655 286.5,343.5C 284.029,345.962 284.529,347.962 288,349.5C 289.726,348.352 289.559,347.185 287.5,346C 288.956,344.255 290.289,342.422 291.5,340.5C 292.495,334.872 292.829,329.206 292.5,323.5C 292.5,286.167 292.5,248.833 292.5,211.5 Z"/></g>
<g><path style="opacity:1" fill="#17194b" d="M 326.5,300.5 C 326.167,301.5 325.5,302.167 324.5,302.5C 321.276,304.372 318.276,306.706 315.5,309.5C 314.264,308.754 312.93,308.421 311.5,308.5C 311.5,309.833 311.5,311.167 311.5,312.5C 310.167,312.5 308.833,312.5 307.5,312.5C 309.783,307.049 313.617,303.049 319,300.5C 319.49,299.207 319.657,297.873 319.5,296.5C 321.907,294.787 324.574,293.453 327.5,292.5C 327.833,293 328.167,293.5 328.5,294C 326.987,295.879 326.321,298.046 326.5,300.5 Z"/></g>
<g><path style="opacity:1" fill="#22244d" d="M 319.5,296.5 C 319.657,297.873 319.49,299.207 319,300.5C 313.617,303.049 309.783,307.049 307.5,312.5C 308.833,312.5 310.167,312.5 311.5,312.5C 311.5,311.167 311.5,309.833 311.5,308.5C 312.93,308.421 314.264,308.754 315.5,309.5C 318.276,306.706 321.276,304.372 324.5,302.5C 318.762,309.744 312.428,316.577 305.5,323C 300.603,325.436 298.436,323.936 299,318.5C 304.717,310.015 311.55,302.682 319.5,296.5 Z"/></g>
<g><path style="opacity:1" fill="#1f194f" d="M 148.5,322.5 C 140.386,313.93 132.053,305.597 123.5,297.5C 123.004,291.175 124.171,290.841 127,296.5C 127.718,295.549 128.551,295.383 129.5,296C 134.823,300.798 139.489,305.464 143.5,310C 144.793,310.49 146.127,310.657 147.5,310.5C 146.773,314.938 148.607,317.605 153,318.5C 153.494,320.134 153.66,321.801 153.5,323.5C 151.784,323.371 150.117,323.038 148.5,322.5 Z"/></g>
<g><path style="opacity:1" fill="#151754" d="M 292.5,323.5 C 292.829,329.206 292.495,334.872 291.5,340.5C 290.289,342.422 288.956,344.255 287.5,346C 289.559,347.185 289.726,348.352 288,349.5C 284.529,347.962 284.029,345.962 286.5,343.5C 286.234,340.655 285.234,338.322 283.5,336.5C 275.874,326.908 265.874,323.408 253.5,326C 242.209,330.477 233.542,337.977 227.5,348.5C 225.159,352.077 221.826,353.243 217.5,352C 219.107,350.951 219.773,349.451 219.5,347.5C 219.841,344.484 221.007,341.818 223,339.5C 227.031,334.304 231.531,329.637 236.5,325.5C 241.469,322.522 246.135,319.189 250.5,315.5C 253.167,313.833 255.833,312.167 258.5,310.5C 259.822,310.33 260.989,310.663 262,311.5C 262.36,309.579 263.194,307.912 264.5,306.5C 267.108,305.391 269.274,303.724 271,301.5C 271.772,301.645 272.439,301.978 273,302.5C 274.667,300.167 276.333,297.833 278,295.5C 278.495,297.473 278.662,299.473 278.5,301.5C 274.709,307.125 270.043,311.958 264.5,316C 271.445,317.891 277.945,320.724 284,324.5C 284.5,315.173 284.666,305.839 284.5,296.5C 285.165,294.631 285.831,292.631 286.5,290.5C 286.738,301.861 287.904,313.194 290,324.5C 290.333,324.833 290.667,325.167 291,325.5C 291.278,324.584 291.778,323.918 292.5,323.5 Z"/></g>
<g><path style="opacity:1" fill="#2c9bc0" d="M 284.5,296.5 C 284.666,305.839 284.5,315.173 284,324.5C 277.945,320.724 271.445,317.891 264.5,316C 270.043,311.958 274.709,307.125 278.5,301.5C 280.81,298.898 282.643,295.898 284,292.5C 284.49,293.793 284.657,295.127 284.5,296.5 Z"/></g>
<g><path style="opacity:1" fill="#26b5c8" d="M 244.5,312.5 C 246.012,314.317 248.012,315.317 250.5,315.5C 246.135,319.189 241.469,322.522 236.5,325.5C 234.303,324.152 232.303,322.485 230.5,320.5C 229.151,320.846 227.817,321.179 226.5,321.5C 231.668,316.916 237.668,313.916 244.5,312.5 Z"/></g>
<g><path style="opacity:1" fill="#222349" d="M 114.5,318.5 C 125.127,319.597 128.294,324.93 124,334.5C 120.146,338.671 115.646,339.504 110.5,337C 106.417,332.755 105.583,327.922 108,322.5C 110.013,320.752 112.18,319.418 114.5,318.5 Z"/></g>
<g><path style="opacity:1" fill="#f67d81" d="M 283.5,336.5 C 285.565,342.704 283.565,347.037 277.5,349.5C 260.683,350.766 244.016,350.766 227.5,349.5C 227.5,349.167 227.5,348.833 227.5,348.5C 233.542,337.977 242.209,330.477 253.5,326C 265.874,323.408 275.874,326.908 283.5,336.5 Z"/></g>
<g><path style="opacity:1" fill="#222653" d="M 165.5,263.5 C 166.167,298.167 166.833,332.833 167.5,367.5C 167.336,370.187 167.503,372.854 168,375.5C 168.708,374.619 169.542,373.953 170.5,373.5C 170.306,375.912 168.973,376.912 166.5,376.5C 166.167,371.167 165.833,365.833 165.5,360.5C 164.5,360.5 163.5,360.5 162.5,360.5C 162.328,351.19 161.828,351.19 161,360.5C 160.5,370.161 160.334,379.828 160.5,389.5C 162.564,389.313 164.564,388.813 166.5,388C 166.167,387.667 165.833,387.333 165.5,387C 167.42,385.878 169.42,385.044 171.5,384.5C 168.35,388.994 164.35,392.328 159.5,394.5C 158.178,354.823 158.178,315.156 159.5,275.5C 160.952,271.263 162.952,267.263 165.5,263.5 Z"/></g>
<g><path style="opacity:1" fill="#27acc9" d="M 236.5,325.5 C 231.531,329.637 227.031,334.304 223,339.5C 221.007,341.818 219.841,344.484 219.5,347.5C 218.522,347.811 217.855,348.478 217.5,349.5C 211.528,350.33 205.528,350.83 199.5,351C 191.868,353.813 184.868,357.647 178.5,362.5C 178.56,359.659 179.226,356.993 180.5,354.5C 193.012,339.668 208.345,328.668 226.5,321.5C 227.817,321.179 229.151,320.846 230.5,320.5C 232.303,322.485 234.303,324.152 236.5,325.5 Z"/></g>
<g><path style="opacity:0.924" fill="#ebcfa3" d="M 335.5,360.5 C 332.537,358.435 329.371,356.769 326,355.5C 322.188,356.146 318.354,356.646 314.5,357C 312.113,357.564 310.113,358.73 308.5,360.5C 308.511,358.983 309.177,357.816 310.5,357C 317.349,352.96 324.349,352.627 331.5,356C 333.635,356.876 334.969,358.376 335.5,360.5 Z"/></g>
<g><path style="opacity:1" fill="#f3c788" d="M 142.5,388.5 C 144.431,385.058 146.597,381.725 149,378.5C 149.667,374.5 149.667,370.5 149,366.5C 146.535,360.697 143.035,360.03 138.5,364.5C 142.497,378.007 137.497,383.507 123.5,381C 120.034,383.194 119.7,385.694 122.5,388.5C 116.214,385.612 113.214,380.612 113.5,373.5C 113.979,360.83 120.479,354.163 133,353.5C 141.973,353.658 147.973,357.991 151,366.5C 152.999,375.929 150.166,383.263 142.5,388.5 Z M 128.5,365.5 C 136.992,364.815 140.159,368.481 138,376.5C 131.859,381.849 127.359,380.516 124.5,372.5C 125.071,369.687 126.404,367.354 128.5,365.5 Z"/></g>
<g><path style="opacity:1" fill="#15ddcc" d="M 168.5,353.5 C 170.017,355.15 171.85,356.483 174,357.5C 175.875,355.822 178.042,354.822 180.5,354.5C 179.226,356.993 178.56,359.659 178.5,362.5C 178.5,362.833 178.5,363.167 178.5,363.5C 177.167,364.167 176.167,365.167 175.5,366.5C 173.139,366.326 170.806,365.993 168.5,365.5C 168.5,361.5 168.5,357.5 168.5,353.5 Z"/></g>
<g><path style="opacity:1" fill="#262757" d="M 219.5,347.5 C 219.773,349.451 219.107,350.951 217.5,352C 221.826,353.243 225.159,352.077 227.5,348.5C 227.5,348.833 227.5,349.167 227.5,349.5C 226.957,349.56 226.624,349.893 226.5,350.5C 243.522,351.791 260.522,351.791 277.5,350.5C 282.537,348.193 284.871,349.86 284.5,355.5C 282.421,357.873 279.754,359.206 276.5,359.5C 262.869,357.68 248.869,356.847 234.5,357C 242.894,356.871 251.228,356.204 259.5,355C 241.48,354.867 223.647,354.034 206,352.5C 205.411,354.863 203.911,355.863 201.5,355.5C 201.234,351.921 199.901,351.587 197.5,354.5C 194.07,353.258 192.737,354.591 193.5,358.5C 220.493,359.267 247.493,359.6 274.5,359.5C 250.32,360.567 225.987,360.733 201.5,360C 197.221,361.473 193.221,363.473 189.5,366C 183.603,371.729 177.936,377.562 172.5,383.5C 171.599,379.759 172.932,377.759 176.5,377.5C 176.34,375.801 176.506,374.134 177,372.5C 178.011,373.337 179.178,373.67 180.5,373.5C 180.318,371.409 180.652,369.409 181.5,367.5C 179.665,366.572 179.332,365.406 180.5,364C 179.906,363.536 179.239,363.369 178.5,363.5C 178.5,363.167 178.5,362.833 178.5,362.5C 184.868,357.647 191.868,353.813 199.5,351C 205.528,350.83 211.528,350.33 217.5,349.5C 217.855,348.478 218.522,347.811 219.5,347.5 Z"/></g>
<g><path style="opacity:1" fill="#101253" d="M 276.5,359.5 C 275.833,359.5 275.167,359.5 274.5,359.5C 247.493,359.6 220.493,359.267 193.5,358.5C 192.737,354.591 194.07,353.258 197.5,354.5C 199.901,351.587 201.234,351.921 201.5,355.5C 203.911,355.863 205.411,354.863 206,352.5C 223.647,354.034 241.48,354.867 259.5,355C 251.228,356.204 242.894,356.871 234.5,357C 248.869,356.847 262.869,357.68 276.5,359.5 Z"/></g>
<g><path style="opacity:1" fill="#bc7589" d="M 227.5,349.5 C 244.016,350.766 260.683,350.766 277.5,349.5C 277.5,349.833 277.5,350.167 277.5,350.5C 260.522,351.791 243.522,351.791 226.5,350.5C 226.624,349.893 226.957,349.56 227.5,349.5 Z"/></g>
<g><path style="opacity:1" fill="#2fb4bc" d="M 167.5,262.5 C 168.498,292.662 168.831,322.995 168.5,353.5C 168.5,357.5 168.5,361.5 168.5,365.5C 170.806,365.993 173.139,366.326 175.5,366.5C 173.445,368.555 171.779,370.888 170.5,373.5C 169.542,373.953 168.708,374.619 168,375.5C 167.503,372.854 167.336,370.187 167.5,367.5C 167.5,332.5 167.5,297.5 167.5,262.5 Z"/></g>
<g><path style="opacity:1" fill="#f6c37a" d="M 335.5,360.5 C 337.708,361.894 339.208,363.894 340,366.5C 340.812,370.689 340.645,374.689 339.5,378.5C 338.141,379.007 337.141,380.007 336.5,381.5C 335.833,380.5 335.167,379.5 334.5,378.5C 333.637,380.771 333.637,383.105 334.5,385.5C 331.307,385.954 328.474,387.287 326,389.5C 324.273,389.354 324.106,388.687 325.5,387.5C 321.765,386.847 318.099,386.014 314.5,385C 315.772,383.693 316.772,382.193 317.5,380.5C 320.494,381.748 323.494,381.748 326.5,380.5C 327.63,379.378 328.297,378.044 328.5,376.5C 330.253,371.679 328.92,368.012 324.5,365.5C 324.209,364.351 323.376,363.684 322,363.5C 320.2,364.378 318.367,365.045 316.5,365.5C 316.33,364.178 316.663,363.011 317.5,362C 316.584,361.626 315.75,361.126 315,360.5C 314.667,363.833 314.333,367.167 314,370.5C 313.692,369.692 313.192,369.025 312.5,368.5C 311.833,371.167 311.167,373.833 310.5,376.5C 309.675,372.878 309.175,369.211 309,365.5C 307.982,366.706 307.482,366.373 307.5,364.5C 307.846,363.151 308.179,361.817 308.5,360.5C 310.113,358.73 312.113,357.564 314.5,357C 318.354,356.646 322.188,356.146 326,355.5C 329.371,356.769 332.537,358.435 335.5,360.5 Z"/></g>
<g><path style="opacity:1" fill="#2b2f53" d="M 248.5,386.5 C 248.491,384.692 248.991,383.025 250,381.5C 252.257,379.954 254.424,378.288 256.5,376.5C 257.429,375.311 257.762,373.978 257.5,372.5C 253.219,372.437 250.552,374.437 249.5,378.5C 247.833,378.5 246.167,378.5 244.5,378.5C 247.296,375.203 250.296,372.036 253.5,369C 258.986,367.175 261.486,369.008 261,374.5C 256.964,378.704 252.798,382.704 248.5,386.5 Z"/></g>
<g><path style="opacity:1" fill="#161752" d="M 170.5,373.5 C 171.779,370.888 173.445,368.555 175.5,366.5C 176.167,365.167 177.167,364.167 178.5,363.5C 179.239,363.369 179.906,363.536 180.5,364C 179.332,365.406 179.665,366.572 181.5,367.5C 180.652,369.409 180.318,371.409 180.5,373.5C 179.178,373.67 178.011,373.337 177,372.5C 176.506,374.134 176.34,375.801 176.5,377.5C 172.932,377.759 171.599,379.759 172.5,383.5C 172.5,384.167 172.167,384.5 171.5,384.5C 169.42,385.044 167.42,385.878 165.5,387C 165.833,387.333 166.167,387.667 166.5,388C 164.564,388.813 162.564,389.313 160.5,389.5C 160.334,379.828 160.5,370.161 161,360.5C 161.828,351.19 162.328,351.19 162.5,360.5C 163.5,360.5 164.5,360.5 165.5,360.5C 165.833,365.833 166.167,371.167 166.5,376.5C 168.973,376.912 170.306,375.912 170.5,373.5 Z"/></g>
<g><path style="opacity:1" fill="#3b375b" d="M 204.5,372.5 C 208.833,376.167 212.833,380.167 216.5,384.5C 215.883,384.611 215.383,384.944 215,385.5C 210.468,381.822 206.968,377.489 204.5,372.5 Z"/></g>
<g><path style="opacity:1" fill="#f6c788" d="M 308.5,360.5 C 308.179,361.817 307.846,363.151 307.5,364.5C 307.482,366.373 307.982,366.706 309,365.5C 309.175,369.211 309.675,372.878 310.5,376.5C 311.167,373.833 311.833,371.167 312.5,368.5C 313.192,369.025 313.692,369.692 314,370.5C 314.333,367.167 314.667,363.833 315,360.5C 315.75,361.126 316.584,361.626 317.5,362C 316.663,363.011 316.33,364.178 316.5,365.5C 318.367,365.045 320.2,364.378 322,363.5C 323.376,363.684 324.209,364.351 324.5,365.5C 315.9,366.252 313.566,370.419 317.5,378C 321.626,380.311 325.293,379.811 328.5,376.5C 328.297,378.044 327.63,379.378 326.5,380.5C 323.494,381.748 320.494,381.748 317.5,380.5C 316.772,382.193 315.772,383.693 314.5,385C 318.099,386.014 321.765,386.847 325.5,387.5C 324.106,388.687 324.273,389.354 326,389.5C 328.474,387.287 331.307,385.954 334.5,385.5C 333.637,383.105 333.637,380.771 334.5,378.5C 335.167,379.5 335.833,380.5 336.5,381.5C 337.141,380.007 338.141,379.007 339.5,378.5C 336.48,386.699 330.48,391.033 321.5,391.5C 314.027,390.87 308.527,387.204 305,380.5C 304.333,375.167 304.333,369.833 305,364.5C 305.949,362.907 307.115,361.574 308.5,360.5 Z"/></g>
<g><path style="opacity:1" fill="#1f1d4f" d="M 204.5,372.5 C 206.968,377.489 210.468,381.822 215,385.5C 215.383,384.944 215.883,384.611 216.5,384.5C 218.453,387.928 217.786,390.595 214.5,392.5C 212.39,390.711 210.056,389.378 207.5,388.5C 201.911,384.409 197.577,379.242 194.5,373C 194.601,370.399 195.935,368.899 198.5,368.5C 201.217,368.852 203.217,370.185 204.5,372.5 Z"/></g>
<g><path style="opacity:1" fill="#f7c37c" d="M 142.5,388.5 C 139.476,390.782 135.976,391.782 132,391.5C 130.167,391.333 128.333,391.167 126.5,391C 124.68,390.8 123.347,389.966 122.5,388.5C 119.7,385.694 120.034,383.194 123.5,381C 137.497,383.507 142.497,378.007 138.5,364.5C 143.035,360.03 146.535,360.697 149,366.5C 149.667,370.5 149.667,374.5 149,378.5C 146.597,381.725 144.431,385.058 142.5,388.5 Z"/></g>
<g><path style="opacity:1" fill="#1b1d53" d="M 248.5,386.5 C 246.42,387.044 244.42,387.878 242.5,389C 241.663,390.011 241.33,391.178 241.5,392.5C 240.167,392.5 238.833,392.5 237.5,392.5C 237.5,390.5 237.5,388.5 237.5,386.5C 239.354,383.49 241.687,380.824 244.5,378.5C 246.167,378.5 247.833,378.5 249.5,378.5C 250.552,374.437 253.219,372.437 257.5,372.5C 257.762,373.978 257.429,375.311 256.5,376.5C 254.424,378.288 252.257,379.954 250,381.5C 248.991,383.025 248.491,384.692 248.5,386.5 Z"/></g>
<g><path style="opacity:1" fill="#3b3d58" d="M 216.5,384.5 C 218.734,385.819 220.068,387.819 220.5,390.5C 219.224,393.804 216.891,394.971 213.5,394C 211.004,392.669 209.004,390.836 207.5,388.5C 210.056,389.378 212.39,390.711 214.5,392.5C 217.786,390.595 218.453,387.928 216.5,384.5 Z"/></g>
<g><path style="opacity:1" fill="#2b2d4b" d="M 237.5,386.5 C 237.5,388.5 237.5,390.5 237.5,392.5C 238.833,392.5 240.167,392.5 241.5,392.5C 241.33,391.178 241.663,390.011 242.5,389C 244.42,387.878 246.42,387.044 248.5,386.5C 246.154,389.679 243.321,392.346 240,394.5C 235.916,393.775 234.582,391.442 236,387.5C 236.383,386.944 236.883,386.611 237.5,386.5 Z"/></g>
<g><path style="opacity:1" fill="#292b44" d="M 269.5,412.5 C 269.678,409.678 270.345,407.011 271.5,404.5C 271.308,398.471 268.142,395.471 262,395.5C 259.067,396.279 256.234,397.279 253.5,398.5C 254.347,396.156 256.014,394.656 258.5,394C 268.84,392.675 273.674,397.175 273,407.5C 272.303,409.584 271.136,411.251 269.5,412.5 Z"/></g>
<g><path style="opacity:1" fill="#1e1d49" d="M 269.5,412.5 C 259.774,417.57 253.774,414.57 251.5,403.5C 252.174,401.805 252.841,400.138 253.5,398.5C 256.234,397.279 259.067,396.279 262,395.5C 268.142,395.471 271.308,398.471 271.5,404.5C 270.345,407.011 269.678,409.678 269.5,412.5 Z"/></g>
<g><path style="opacity:1" fill="#2a2b4c" d="M 188.5,395.5 C 195.94,393.397 200.607,396.231 202.5,404C 199.565,414.531 193.731,416.698 185,410.5C 182.007,405.728 182.34,401.061 186,396.5C 186.671,395.748 187.504,395.414 188.5,395.5 Z"/></g>
<g><path style="opacity:1" fill="#181845" d="M 188.5,395.5 C 191.721,396.505 195.054,397.339 198.5,398C 198.043,398.414 197.709,398.914 197.5,399.5C 201.658,404.569 200.491,408.236 194,410.5C 193.517,409.552 193.351,408.552 193.5,407.5C 190.675,407.081 188.509,408.081 187,410.5C 185.069,405.235 185.569,400.235 188.5,395.5 Z"/></g>
</svg>
